<svg width="85" height="23" fill="none" xmlns="http://www.w3.org/2000/svg"><path d="M31.68 4.7h-4.7a.67.67 0 0 0-.64.56l-1.9 12.23a.4.4 0 0 0 .1.32.4.4 0 0 0 .3.13h2.23c.16 0 .3-.05.43-.15.12-.1.2-.25.22-.4l.5-3.3c.03-.16.11-.3.23-.4.12-.1.27-.16.42-.16h1.49c3.08 0 4.87-1.52 5.33-4.53.21-1.32.01-2.35-.6-3.08-.66-.8-1.84-1.22-3.41-1.22Zm.54 4.47c-.26 1.7-1.54 1.7-2.79 1.7h-.7l.5-3.19a.4.4 0 0 1 .12-.24c.07-.06.16-.1.26-.1h.32c.85 0 1.65 0 2.06.5.25.3.32.73.23 1.33Zm13.47-.06h-2.24a.4.4 0 0 0-.39.34l-.1.64-.16-.23c-.48-.72-1.57-.96-2.65-.96-2.48 0-4.6 1.9-5.01 4.59a4.36 4.36 0 0 0 .84 3.5c.68.82 1.66 1.17 2.82 1.17 2 0 3.11-1.31 3.11-1.31l-.1.63a.4.4 0 0 0 .09.32.4.4 0 0 0 .3.14h2.02c.15 0 .3-.05.42-.16.12-.1.2-.24.22-.4l1.21-7.8a.4.4 0 0 0-.22-.43.38.38 0 0 0-.16-.04Zm-3.13 4.45a2.51 2.51 0 0 1-2.53 2.17c-.65 0-1.17-.2-1.5-.61-.34-.4-.47-.97-.36-1.6.2-1.3 1.24-2.2 2.51-2.2.64 0 1.16.21 1.5.62a2 2 0 0 1 .38 1.62ZM57.65 9.1h-2.26a.65.65 0 0 0-.54.3l-3.11 4.65-1.32-4.47a.66.66 0 0 0-.23-.35.65.65 0 0 0-.4-.13h-2.21a.39.39 0 0 0-.32.17.4.4 0 0 0-.05.36l2.48 7.41-2.33 3.36a.4.4 0 0 0 .11.57c.06.03.13.05.2.05h2.26a.64.64 0 0 0 .53-.28l7.5-11.01a.4.4 0 0 0-.11-.57.39.39 0 0 0-.2-.06Z" fill="#253B80"/><path d="M65.12 4.7h-4.7c-.15 0-.3.06-.42.16-.11.1-.2.25-.22.4l-1.9 12.23a.4.4 0 0 0 .1.32.4.4 0 0 0 .3.13h2.4c.1 0 .21-.04.3-.1a.47.47 0 0 0 .15-.29l.54-3.46c.02-.16.1-.3.22-.4.11-.1.26-.16.42-.16h1.48c3.1 0 4.87-1.52 5.34-4.53.21-1.32 0-2.35-.6-3.08-.66-.8-1.85-1.22-3.41-1.22Zm.54 4.47c-.26 1.7-1.54 1.7-2.79 1.7h-.7l.5-3.19a.4.4 0 0 1 .12-.24c.07-.06.16-.1.26-.1h.32c.85 0 1.65 0 2.06.5.25.3.32.73.23 1.33Zm13.47-.06h-2.25c-.09 0-.18.04-.25.1a.4.4 0 0 0-.13.24l-.1.64-.16-.23c-.48-.72-1.57-.96-2.65-.96-2.48 0-4.6 1.9-5.01 4.59a4.36 4.36 0 0 0 .84 3.5c.68.82 1.66 1.17 2.82 1.17 2 0 3.11-1.31 3.11-1.31l-.1.63a.4.4 0 0 0 .22.43c.05.02.11.03.17.03h2.02c.15 0 .3-.05.42-.16.12-.1.2-.24.22-.4l1.22-7.8a.4.4 0 0 0-.1-.33.4.4 0 0 0-.3-.14ZM76 13.56a2.51 2.51 0 0 1-2.53 2.17c-.65 0-1.18-.2-1.51-.61-.33-.4-.46-.97-.35-1.6.2-1.3 1.23-2.2 2.51-2.2.64 0 1.16.21 1.5.62.34.41.48.98.38 1.62Zm5.77-8.52-1.92 12.45a.4.4 0 0 0 .09.32.4.4 0 0 0 .3.13h1.93c.32 0 .6-.23.64-.56l1.9-12.22a.4.4 0 0 0-.09-.32.4.4 0 0 0-.3-.14h-2.16c-.1 0-.18.04-.25.1a.4.4 0 0 0-.14.24Z" fill="#179BD7"/><path d="M4.98 20.32 5.34 18l-.8-.01H.73L3.38.9c0-.05.03-.1.07-.13A.21.21 0 0 1 3.6.7h6.43c2.14 0 3.61.46 4.38 1.35.36.41.59.85.7 1.33.12.5.12 1.11 0 1.85v.52l.36.2c.27.15.52.34.73.57.3.36.5.82.59 1.35a5.8 5.8 0 0 1-.08 1.96c-.17.86-.43 1.61-.8 2.22a4.54 4.54 0 0 1-2.93 2.17c-.62.16-1.33.25-2.1.25h-.5a1.5 1.5 0 0 0-1.5 1.29l-.03.2-.64 4.09-.02.15c-.01.05-.02.07-.04.09a.1.1 0 0 1-.07.02H4.98Z" fill="#253B80"/><path d="m15.8 5.34-.07.39c-.84 4.42-3.75 5.95-7.45 5.95H6.39a.92.92 0 0 0-.9.8l-.97 6.22-.27 1.77a.5.5 0 0 0 .1.39.48.48 0 0 0 .37.17h3.35c.4 0 .73-.29.8-.69l.03-.17.63-4.07.04-.22c.06-.4.4-.69.8-.69h.5c3.24 0 5.77-1.34 6.52-5.21.3-1.62.14-2.97-.68-3.92a3.2 3.2 0 0 0-.91-.72Z" fill="#179BD7"/><path d="M14.91 4.98a10.3 10.3 0 0 0-2.49-.3H7.38a.8.8 0 0 0-.52.2.82.82 0 0 0-.27.49l-1.07 6.9-.03.2a.94.94 0 0 1 .3-.56.9.9 0 0 1 .6-.23h1.89c3.7 0 6.6-1.53 7.45-5.95l.07-.39a4.48 4.48 0 0 0-.89-.36Z" fill="#222D65"/><path d="M6.59 5.37c.03-.2.13-.37.27-.5a.8.8 0 0 1 .52-.2h5.04c.6 0 1.16.04 1.67.13a6.6 6.6 0 0 1 1.71.54c.25-1.63 0-2.75-.87-3.75C13.97.48 12.23 0 10.03 0H3.58a.92.92 0 0 0-.9.79L0 18.05a.57.57 0 0 0 .12.45.55.55 0 0 0 .42.2h3.97l1-6.43 1.07-6.9Z" fill="#253B80"/></svg>