<svg width="89" height="32" fill="none" xmlns="http://www.w3.org/2000/svg"><path d="M45.27 27.15c0-.28.08-.52.24-.7.17-.2.42-.29.76-.29.33 0 .58.1.75.28.18.2.27.43.27.7 0 .28-.1.5-.27.68-.17.19-.42.28-.75.28-.34 0-.59-.1-.76-.28a.97.97 0 0 1-.24-.67Zm10.24-1.67c0-.44-.16-.78-.5-1.02-.33-.25-.9-.46-1.73-.63a8.28 8.28 0 0 1-1.96-.64 2.83 2.83 0 0 1-1.07-.88 2.12 2.12 0 0 1-.34-1.2c0-.79.32-1.45.98-1.99.66-.54 1.5-.8 2.53-.8 1.08 0 1.95.27 2.62.83a2.65 2.65 0 0 1 1.01 2.14h-1.63c0-.45-.2-.83-.57-1.16a2.1 2.1 0 0 0-1.43-.48c-.59 0-1.05.13-1.39.39-.33.25-.5.6-.5 1s.16.7.47.9c.3.2.87.39 1.68.57.81.18 1.47.4 1.97.65s.88.55 1.12.91c.25.35.37.78.37 1.3 0 .84-.34 1.53-1.02 2.04a4.3 4.3 0 0 1-2.65.77c-.76 0-1.43-.14-2.02-.4a3.33 3.33 0 0 1-1.38-1.13 2.76 2.76 0 0 1-.49-1.58h1.63c.03.55.24.98.65 1.3.4.32.95.48 1.61.48.62 0 1.11-.12 1.48-.37.38-.25.56-.59.56-1Zm5.37-5.84a3.46 3.46 0 0 1 2.82-1.33c2 0 3.02 1.14 3.04 3.4V28H65.1v-6.3c0-.68-.16-1.19-.47-1.51-.3-.33-.79-.5-1.44-.5-.52 0-.99.14-1.38.43-.4.28-.71.65-.94 1.1V28h-1.62V14.5h1.62v5.14Zm7.86 3.52c0-.93.18-1.77.55-2.52.37-.74.88-1.31 1.53-1.72.65-.4 1.4-.6 2.24-.6a4 4 0 0 1 3.13 1.34c.8.9 1.2 2.09 1.2 3.58v.11c0 .93-.17 1.76-.53 2.5a4 4 0 0 1-3.79 2.33 4.01 4.01 0 0 1-3.13-1.35c-.8-.9-1.2-2.08-1.2-3.56v-.11Zm1.64.2c0 1.05.24 1.9.73 2.53.49.64 1.14.96 1.96.96.83 0 1.49-.32 1.97-.97.49-.65.73-1.56.73-2.72 0-1.05-.25-1.89-.74-2.53a2.35 2.35 0 0 0-1.97-.98c-.8 0-1.45.32-1.95.96-.49.64-.73 1.55-.73 2.74Zm17.1 0a5.7 5.7 0 0 1-1 3.49 3.18 3.18 0 0 1-2.7 1.33 3.49 3.49 0 0 1-2.72-1.1v4.58h-1.62V18.49h1.48l.08 1.05a3.35 3.35 0 0 1 2.76-1.23c1.14 0 2.05.44 2.7 1.3.68.86 1.01 2.06 1.01 3.6v.14Zm-1.64-.2a4.2 4.2 0 0 0-.68-2.53 2.2 2.2 0 0 0-1.88-.94c-.99 0-1.72.44-2.22 1.31v4.55a2.4 2.4 0 0 0 2.24 1.3c.78 0 1.4-.3 1.85-.92.46-.63.7-1.55.7-2.76Z" fill="#000"/><g clip-path="url(#a)" fill="#000"><path d="M34.1.79H23.5v27.38h6.6v-8.6h4c6.22 0 9.82-3.96 9.82-9.4 0-5.43-3.6-9.38-9.81-9.38Zm-.68 12.96H30.1V6.6h3.32c2.4 0 3.78 1.32 3.78 3.58s-1.38 3.57-3.78 3.57ZM12.22 11.7c-2.03-.58-3.32-1-3.95-1.4-.52-.35-.83-.84-.83-1.41 0-1.29 1.03-2.26 3.35-2.26 2.2 0 3.37.94 3.37 2.34h6.64c0-5.12-4.29-8.52-9.7-8.52-3.2 0-5.66.68-7.61 2.34A7.81 7.81 0 0 0 .74 8.95c0 2.26.69 3.89 1.75 5.03 1 1.09 3.03 2.38 6.2 3.23 2.3.63 3.93 1.12 4.67 1.6.77.5.98.92.98 1.5 0 1.22-1.23 2.05-3.7 2.05-2.29 0-3.52-.85-3.6-2.34H.3c0 5.18 4.24 8.5 10.33 8.5 5.93 0 10.39-3.67 10.39-8.33a6.9 6.9 0 0 0-1.55-4.72c-1.08-1.37-3.26-2.6-7.26-3.78Z"/></g><defs><clipPath id="a"><path fill="#fff" d="M0 0h44v28.73H0z"/></clipPath></defs></svg>