<svg width="24" height="21" fill="none" xmlns="http://www.w3.org/2000/svg"><path d="M18.75 16.5a2.2 2.2 0 0 1 1.6.66 2.26 2.26 0 0 1-3.2 3.18 2.26 2.26 0 0 1-.52-2.34h-6.26a2.2 2.2 0 0 1-.53 2.34 2.26 2.26 0 0 1-3.5-2.79c.23-.36.54-.64.94-.83L2.2 1.5H0V0h3.3l.99 3H24l-3.5 10.5H7.8l.99 3h9.96ZM4.79 4.5 7.3 12h12.13l2.5-7.5H4.78ZM9 18.75c0-.2-.07-.38-.22-.53a.72.72 0 0 0-.53-.22c-.2 0-.38.07-.53.22a.72.72 0 0 0-.22.53c0 .2.07.38.22.53.15.15.33.22.53.22s.38-.07.53-.22a.72.72 0 0 0 .22-.53Zm9.75.75c.2 0 .38-.07.53-.22a.72.72 0 0 0 .22-.53c0-.2-.07-.38-.22-.53a.72.72 0 0 0-.53-.22c-.2 0-.38.07-.53.22a.72.72 0 0 0-.22.53c0 .2.07.38.22.53.15.15.33.22.53.22Z" fill="#000"/></svg>