<svg width="21" height="20" fill="none" xmlns="http://www.w3.org/2000/svg"><path d="M10.89 0a9.9 9.9 0 0 1 8.61 4.95c.44.74.77 1.54 1.01 2.4a9.93 9.93 0 0 1-6.97 12.3 9.9 9.9 0 0 1-11.27-4.58c-.43-.76-.77-1.56-1-2.4A9.93 9.93 0 0 1 8.22.37 9.6 9.6 0 0 1 10.88 0Zm0 18.67A8.67 8.67 0 0 0 17 16.14a8.8 8.8 0 0 0 2.22-3.83 9.03 9.03 0 0 0 .01-4.61 8.42 8.42 0 0 0-2.22-3.83 8.78 8.78 0 0 0-3.82-2.22 9 9 0 0 0-4.61-.01 8.4 8.4 0 0 0-3.82 2.22A8.8 8.8 0 0 0 2.54 7.7a9.03 9.03 0 0 0 0 4.61 8.42 8.42 0 0 0 2.22 3.82 8.79 8.79 0 0 0 3.82 2.23 9 9 0 0 0 2.3.32Zm-6-9.34h12v1.34h-12V9.33Z" fill="#000"/></svg>