<svg width="21" height="20" fill="none" xmlns="http://www.w3.org/2000/svg"><path d="M10.83 0a9.96 9.96 0 0 1 5.03 1.37c.74.44 1.41.96 2.02 1.56a9.52 9.52 0 0 1 2.58 4.41 10.19 10.19 0 0 1 .01 5.32 9.46 9.46 0 0 1-1.01 2.38c-.45.73-.97 1.4-1.57 2.02a9.51 9.51 0 0 1-4.4 2.58 10.16 10.16 0 0 1-5.31 0 9.83 9.83 0 0 1-5.97-4.6 10.12 10.12 0 0 1-1.02-7.7c.23-.85.57-1.64 1.02-2.38.44-.73.96-1.4 1.56-2.02A9.51 9.51 0 0 1 8.17.36C9.03.13 9.92.01 10.84 0Zm0 18.75a8.55 8.55 0 0 0 4.41-1.2 8.38 8.38 0 0 0 1.77-1.36c.52-.53.98-1.12 1.36-1.77a8.53 8.53 0 0 0 1.2-4.42 8.57 8.57 0 0 0-1.19-4.41 9.22 9.22 0 0 0-3.13-3.13 8.52 8.52 0 0 0-4.42-1.21 8.54 8.54 0 0 0-4.41 1.2c-.65.37-1.24.82-1.77 1.36A8.53 8.53 0 0 0 2.08 10a8.57 8.57 0 0 0 1.2 4.4 8.62 8.62 0 0 0 5.22 4.03c.75.2 1.52.31 2.33.31Zm.62-9.38h4.38v1.25h-4.38V15h-1.24v-4.38H5.84V9.37h4.37V5h1.24v4.37Z" fill="#000"/></svg>