<svg fill="none" xmlns="http://www.w3.org/2000/svg"><path d="M15.75 0a8.15 8.15 0 0 1 5.82 2.41 8.52 8.52 0 0 1 2.14 3.65 8.15 8.15 0 0 1-2.12 8.02 8.52 8.52 0 0 1-3.65 2.13 8.04 8.04 0 0 1-5-.2 8.6 8.6 0 0 1-2.46-1.42l-9.2 9.19a.72.72 0 0 1-.53.22.72.72 0 0 1-.53-.22.72.72 0 0 1-.22-.53c0-.2.07-.38.22-.53l9.19-9.2a8.07 8.07 0 0 1-1.62-7.46 8.15 8.15 0 0 1 3.8-4.94A7.8 7.8 0 0 1 13.56.3c.7-.18 1.42-.28 2.19-.29Zm0 15a6.6 6.6 0 0 0 4.77-1.98 6.95 6.95 0 0 0 1.98-4.77 6.6 6.6 0 0 0-1.98-4.77 6.95 6.95 0 0 0-4.77-1.98 6.6 6.6 0 0 0-4.77 1.98A6.95 6.95 0 0 0 9 8.25a6.6 6.6 0 0 0 1.98 4.77A6.95 6.95 0 0 0 15.75 15Z" fill="#000"/></svg>